<svg xmlns="http://www.w3.org/2000/svg" width="150.667" height="21.437" viewBox="0 0 150.667 21.437"><g transform="translate(-53.449 -1003.494)"><path d="M126.5,1011.523a.332.332,0,1,0,.1.458.332.332,0,0,0-.1-.458" transform="translate(-3.584 -0.394)" fill="#fff"/><path d="M133.045,1015.074a5.671,5.671,0,0,0-5.706-5.931,5.758,5.758,0,0,0-5.975,5.931c0,3.347,2.381,5.931,6.223,5.931a5.7,5.7,0,0,0,4.9-2.314l-2.7-1.55a2.934,2.934,0,0,1-2.157.854,2.556,2.556,0,0,1-2.7-1.572h7.975a6.5,6.5,0,0,0,.135-1.348m-7.8-.721c-.137-.343-.048-.672-.584-1.1-.448-.354-.712-.492-.526-1.091a5.076,5.076,0,0,1,.35-.854c.09-.182.111-.168.3-.161a3.012,3.012,0,0,0,1.151-.093,2.2,2.2,0,0,1,1.787.386,6.235,6.235,0,0,1,1.082-.723c.083.046.028.246.028.246a4.813,4.813,0,0,0,.706,3.387Z" transform="translate(-3.356 -0.279)" fill="#fff"/><path d="M113.871,1009.143a4.219,4.219,0,0,0-3.347,1.37v-1.055h-3.37v15.726a3.37,3.37,0,0,0,3.37-3.37v-2.18l0,0,0-3.674a11.782,11.782,0,0,1,.106-1.319,6.719,6.719,0,0,1,.657-2.312v0c.052-.074.14-.048.193.074l.453,1.022a1.962,1.962,0,0,1,1.933.207c1.048.679.754.6,1.988.378,1-.179,1.068-.356,1.119.256.125,1.479-.667,1.859-1.351,2.366-1.288.954-1.089,2.615-.28,3.821.058.086.121.174.185.261a5.886,5.886,0,0,0,3.711-5.645,5.64,5.64,0,0,0-5.37-5.931" transform="translate(-2.654 -0.279)" fill="#fff"/><path d="M113.975,1015.023a.334.334,0,1,0-.417-.22.334.334,0,0,0,.417.22" transform="translate(-2.969 -0.537)" fill="#fff"/><path d="M168.084,1015.861l-.02.033a2.359,2.359,0,0,1-1.926,1.192c-.578,0-1.228-.239-2.625-1.454.457-.525.914-1.144,1.252-1.6.553-.737,1.576-1.883,2.181-2.583a.744.744,0,0,0-.562-1.232H163.3a.726.726,0,0,0-.564,1.231l.853,1.027a2.057,2.057,0,0,1,.224.291,1.639,1.639,0,0,1,.048,1.792,2.011,2.011,0,0,1-.166.214l-.027.03-.057.067c-.148.18-.271.324-.409.474-1.346-1.193-3.572-3.485-4.912-4.793,5.928-.971,5.286-7.141-.77-7.058-3.756,0-5.586,2.265-5.586,4.935-.1,2.237,1.793,4.332,3.539,5.986,1.1,1.077,3.107,3.17,4.142,4.1a4.009,4.009,0,0,1-5.972-3.433l.006.241a3.008,3.008,0,0,1,.5-1.91s-.587-.122-1.469.679c-.035-.084-.064-.406-.083-.467a4.08,4.08,0,0,0-4.248-3.483c2.545.848,1.248,4.6,1.248,4.6a2.482,2.482,0,0,1-.593-.684,6.515,6.515,0,0,0,2.214,5.48l.009,0c2.509,2.14,6.611,1.088,8.725-.765,3.455,3.4,8.714,2.324,8.134-2.918m-10.012-5.523c-1.927-2.027-2.433-3.051-2.433-4.244,0-1.311.65-2.145,1.613-2.145,2.427.01,2.531,4.863.819,6.39" transform="translate(-4.689 0)" fill="#fff"/><path d="M66.116,1015.09a5.953,5.953,0,1,1,5.954,5.931,5.888,5.888,0,0,1-5.954-5.931m8.537,0a2.585,2.585,0,1,0-2.584,2.651,2.52,2.52,0,0,0,2.584-2.651" transform="translate(-0.626 -0.28)" fill="#fff"/><path d="M91.129,1009.49v11.232H87.76v-1.056a3.84,3.84,0,0,1-3.212,1.371c-2.269,0-4.2-1.618-4.2-4.65v-6.9h3.37v6.4a1.853,1.853,0,0,0,1.954,2.045c1.236,0,2.089-.72,2.089-2.315v-6.132Z" transform="translate(-1.329 -0.296)" fill="#fff"/><path d="M100.753,1009.253v3.819c-1.394-.224-3.37.337-3.37,2.561v5.077h-3.37v-11.232h3.37v2a3.374,3.374,0,0,1,3.37-2.224" transform="translate(-2.004 -0.284)" fill="#fff"/><path d="M140.276,1012.582v3.976c0,.966.831,1.056,2.314.966v3.055c-4.4.45-5.684-.876-5.684-4.021v-3.976h-1.8v-3.235h1.8V1006.6l3.37-.008v2.751h2.314v3.235Z" transform="translate(-4.035 -0.153)" fill="#fff"/><path d="M185.519,1009.49l-3.841,10.9c-1.259,3.571-3.258,4.987-6.4,4.83v-3.145a2.5,2.5,0,0,0,2.808-1.865l-4.471-10.715h3.707l2.493,6.874,2.112-6.874Z" transform="translate(-5.938 -0.296)" fill="#fff"/><path d="M65.355,1009.49l-3.841,10.9c-1.258,3.571-3.258,4.987-6.4,4.83v-3.145a2.5,2.5,0,0,0,2.808-1.865l-4.471-10.715h3.706l2.493,6.874,2.112-6.874Z" transform="translate(0 -0.296)" fill="#fff"/><path d="M186.372,1015.09a5.953,5.953,0,1,1,5.953,5.931,5.887,5.887,0,0,1-5.953-5.931m8.536,0a2.584,2.584,0,1,0-2.584,2.651,2.519,2.519,0,0,0,2.584-2.651" transform="translate(-6.568 -0.28)" fill="#fff"/><path d="M211.387,1009.49v11.232h-3.37v-1.056a3.839,3.839,0,0,1-3.212,1.371c-2.269,0-4.2-1.618-4.2-4.65v-6.9h3.37v6.4a1.853,1.853,0,0,0,1.954,2.045c1.236,0,2.089-.72,2.089-2.315v-6.132Z" transform="translate(-7.271 -0.296)" fill="#fff"/></g></svg>