<svg id="Layer_1" data-name="Layer 1" xmlns="http://www.w3.org/2000/svg" viewBox="0 0 125.18 67.8"><defs><style>.cls-1{fill:#00263a;}</style></defs><path class="cls-1" d="M126.19,31.29a3.57,3.57,0,1,1-3.55-3.45A3.5,3.5,0,0,1,126.19,31.29Zm-6.06,0a2.51,2.51,0,1,0,2.49-2.6A2.5,2.5,0,0,0,120.13,31.31Zm2.07,1.63h-1V29.75a8.78,8.78,0,0,1,1.41-.1,2.38,2.38,0,0,1,1.28.24.83.83,0,0,1,.34.7c0,.32-.3.6-.74.72v0a1,1,0,0,1,.66.83,3.35,3.35,0,0,0,.22.76h-1.1a1.93,1.93,0,0,1-.22-.68.5.5,0,0,0-.54-.48h-.32Zm0-1.83h.28c.36,0,.6-.14.6-.38s-.22-.4-.56-.4l-.32,0Z" transform="translate(-1.77 -4.4)"/><path class="cls-1" d="M32.09,39.52a16,16,0,0,0-4.71,11.06,15.15,15.15,0,0,0,1,6.15H27a14.31,14.31,0,0,1-1.16-6,16.31,16.31,0,0,1,4.71-11.17Z" transform="translate(-1.77 -4.4)"/><path class="cls-1" d="M34.8,54a5.24,5.24,0,0,1-1.86.29c-2.28,0-3.11-1.67-3.11-3.66,0-3,2-6.87,5.68-6.87a3.15,3.15,0,0,1,1.13.17l-.45,1.32a2.7,2.7,0,0,0-.85-.15c-2.38,0-3.77,3.05-3.77,5.36,0,1.5.5,2.52,1.82,2.52a4.85,4.85,0,0,0,1.39-.25Z" transform="translate(-1.77 -4.4)"/><path class="cls-1" d="M40.78,54.19c0-.57.1-1.15.17-1.95H40.9c-1.13,1.74-2.15,2.12-3,2.12-1.32,0-2.12-1-2.12-2.89,0-3.11,1.83-7.71,6.24-7.71a6.3,6.3,0,0,1,2.1.34L42.81,50a20,20,0,0,0-.5,4.22Zm1.44-9.12a3.84,3.84,0,0,0-.71-.06c-2.54,0-4,3.75-4,6,0,1.29.26,2,1.06,2,1.16,0,2.38-2,2.83-4.07Z" transform="translate(-1.77 -4.4)"/><path class="cls-1" d="M44.11,54.19l1.44-6.89A32,32,0,0,0,46,43.93h1.49c0,.55-.07,1.1-.19,1.93h.07a3.48,3.48,0,0,1,2.85-2.1l.31,0-.33,1.61-.22,0c-1.5,0-2.77,1.91-3.11,3.43l-1.13,5.39Z" transform="translate(-1.77 -4.4)"/><path class="cls-1" d="M48.61,58.26l2.26-10.71c.31-1.46.49-2.75.64-3.62H53l-.26,1.67h0a3.77,3.77,0,0,1,3-1.84c1.65,0,2.09,1.4,2.09,2.93,0,3.18-1.83,7.67-5.25,7.67A2.84,2.84,0,0,1,51.22,54h0l-.88,4.24Zm2.85-5.51a1.88,1.88,0,0,0,1.08.38c2.64,0,3.58-4.71,3.58-6.23,0-1-.21-1.78-1.1-1.78-1.13,0-2.34,1.65-2.74,3.58Z" transform="translate(-1.77 -4.4)"/><path class="cls-1" d="M58.15,54.19l1.44-6.89a32,32,0,0,0,.49-3.37h1.49c0,.55-.07,1.1-.19,1.93h.07a3.45,3.45,0,0,1,2.85-2.1l.3,0-.33,1.61-.21,0c-1.5,0-2.78,1.91-3.11,3.43l-1.13,5.39Z" transform="translate(-1.77 -4.4)"/><path class="cls-1" d="M71.42,47.11c0,2.59-1.41,7.25-4.9,7.25-2.12,0-2.78-1.65-2.78-3.48,0-2.75,1.65-7.12,5-7.12C71.07,43.76,71.42,45.73,71.42,47.11Zm-6,3.62c0,1.17.09,2.38,1.29,2.38,2.08,0,3-4.37,3-6.11,0-1.06-.21-2-1.2-2C66.61,45,65.46,48.72,65.46,50.73Z" transform="translate(-1.77 -4.4)"/><path class="cls-1" d="M71.93,54.19l1.93-9H72.45l.23-1.21h1.44l.14-.62a5.71,5.71,0,0,1,1.58-3.09,3.63,3.63,0,0,1,2.4-.87,3.14,3.14,0,0,1,1.2.19L79,40.75a3.13,3.13,0,0,0-.87-.11c-1.29,0-2,1.42-2.28,2.8l-.1.49H78l-.24,1.21H75.56l-2,9Z" transform="translate(-1.77 -4.4)"/><path class="cls-1" d="M82.68,53.68a6,6,0,0,1-2.68.63c-2.41,0-3.19-1.65-3.19-3.62,0-2.78,1.72-6.93,5-6.93a2.18,2.18,0,0,1,2.35,2.33c0,2.48-2.45,3.54-5.56,3.56a6.14,6.14,0,0,0,.07,2.06A1.69,1.69,0,0,0,80.4,53a4,4,0,0,0,2-.55Zm-1.15-8.61c-1,0-2.1,1.13-2.71,3.35,1.81,0,3.72-.57,3.72-2.22C82.54,45.48,82.21,45.07,81.53,45.07Z" transform="translate(-1.77 -4.4)"/><path class="cls-1" d="M84,54.19l1.39-6.74c.33-1.49.49-2.69.61-3.52h1.48l-.18,1.63h0a3.72,3.72,0,0,1,3.07-1.8,1.86,1.86,0,0,1,2,2.08,8,8,0,0,1-.21,1.67l-1.39,6.68H89l1.39-6.66a6.35,6.35,0,0,0,.17-1.42.91.91,0,0,0-1-1c-1.06,0-2.33,1.47-2.76,3.42l-1.2,5.7Z" transform="translate(-1.77 -4.4)"/><path class="cls-1" d="M90.5,56.73a16.22,16.22,0,0,0,4.71-11.08,14.85,14.85,0,0,0-1-6.13h1.37a14.75,14.75,0,0,1,1.11,6,16.42,16.42,0,0,1-4.67,11.19Z" transform="translate(-1.77 -4.4)"/><path class="cls-1" d="M23.1,43.45c0,.68-1,1.23-2.21,1.23s-2.16-.55-2.16-1.23l0-24.3c0-1.48-.51-3.56-4.71-3.56-4.83,0-7.38,3.69-7.38,8.82,0,5.3,2.59,8.36,6.11,8.36a7.47,7.47,0,0,0,3.09-.6c.55-.21,1.06.09,1.28.77a1.12,1.12,0,0,1-.43,1.4,10.51,10.51,0,0,1-4.24.76C5,35.1,2,29.37,2,24.46c0-4.67,2.88-11.07,12-11.07,3.61,0,6.7,1,7.81,1.82a2.84,2.84,0,0,1,1.27,2.5Z" transform="translate(-1.77 -4.4)"/><path class="cls-1" d="M29,13.6c1.23,0,2.2.59,2.2,1.27V28.1c0,1.49,0,4.58,6.07,4.58,4.79,0,5-2.25,5-3.9V14.87c0-.68,1-1.27,2.2-1.27s2.21.59,2.21,1.27V30.43a3,3,0,0,1-1.36,2.76c-2.59,1.53-6.7,1.87-8.35,1.87-9.46,0-10.14-3.9-10.14-6.19v-14C26.83,14.19,27.85,13.6,29,13.6Z" transform="translate(-1.77 -4.4)"/><path class="cls-1" d="M61,13.39c2.21,0,7.93.89,7.68,5.81-.17,4.62-6.07,6.91-11.58,7.21-.55,0-.93-.3-1-1s.17-1.1.68-1.14c4.11-.6,7.42-2,7.59-5.05.09-1.31,0-3.86-4.07-3.73-3.43.08-5.94,3.09-6,8-.13,5.81,3.14,8.78,6.74,8.78s4.75-1.57,6-2.75c.76-.72,1.19-.56,1.57-.3a1,1,0,0,1,.34,1.48c-.38.72-3,4.33-8.65,4.33-6.62,0-10.6-4.54-10.52-10.81S54,13.39,61,13.39Z" transform="translate(-1.77 -4.4)"/><path class="cls-1" d="M76.43,33.66c0,.68-1,1.23-2.21,1.23S72,34.34,72,33.66v-28C72,5,73,4.4,74.22,4.4s2.21.55,2.21,1.27Z" transform="translate(-1.77 -4.4)"/><path class="cls-1" d="M84.78,33.66c0,.68-1,1.23-2.2,1.23s-2.21-.55-2.21-1.23v-28c0-.72,1-1.27,2.21-1.27s2.2.55,2.2,1.27Z" transform="translate(-1.77 -4.4)"/><path class="cls-1" d="M93.14,10.29c0,.72-1,1.27-2.21,1.27s-2.2-.55-2.2-1.27V8.43c0-.72,1-1.28,2.2-1.28s2.21.56,2.21,1.28Zm0,23.33c0,.67-1,1.27-2.21,1.27s-2.2-.6-2.2-1.27V14.87c0-.68,1-1.27,2.2-1.27s2.21.59,2.21,1.27Z" transform="translate(-1.77 -4.4)"/><path class="cls-1" d="M114.72,34.89c-1.23,0-2.2-.55-2.2-1.27V20.34c0-1.52-.17-4.62-6.19-4.62-4.79,0-4.84,2.25-4.84,3.9v14c0,.72-1,1.27-2.2,1.27s-2.21-.55-2.21-1.27V18a2.86,2.86,0,0,1,1.36-2.72c2.59-1.57,6.7-1.86,8.35-1.86,9.46,0,10.14,3.86,10.14,6.19v14C116.93,34.34,116,34.89,114.72,34.89Z" transform="translate(-1.77 -4.4)"/><path class="cls-1" d="M2.13,70.28a4,4,0,0,0,1.75.49c.61,0,.86-.21.86-.54s-.2-.5-1-.75c-1.34-.45-1.86-1.18-1.85-2,0-1.21,1-2.13,2.65-2.13a4.38,4.38,0,0,1,1.84.37l-.36,1.4a3.17,3.17,0,0,0-1.41-.38c-.49,0-.77.2-.77.54s.25.46,1,.74c1.23.43,1.75,1.05,1.77,2,0,1.21-1,2.1-2.82,2.1a4.59,4.59,0,0,1-2.11-.45Z" transform="translate(-1.77 -4.4)"/><path class="cls-1" d="M14.35,68.72a3.27,3.27,0,0,1-3.44,3.48,3.19,3.19,0,0,1-3.36-3.36A3.24,3.24,0,0,1,11,65.4,3.16,3.16,0,0,1,14.35,68.72Zm-4.71.07c0,1.12.46,2,1.33,2s1.29-.79,1.29-2c0-1-.38-2-1.29-2S9.64,67.83,9.64,68.79Z" transform="translate(-1.77 -4.4)"/><path class="cls-1" d="M15.82,72.05V67H15V65.54h.85v-.25a3,3,0,0,1,.83-2.18,2.61,2.61,0,0,1,1.79-.65,3.93,3.93,0,0,1,1.08.13l-.08,1.56a2,2,0,0,0-.65-.1c-.67,0-.95.52-.95,1.16v.33h1.31V67H17.86v5Z" transform="translate(-1.77 -4.4)"/><path class="cls-1" d="M22.59,63.68v1.86H24V67H22.59v2.36c0,.78.19,1.14.8,1.14a3.12,3.12,0,0,0,.6,0V72a3.85,3.85,0,0,1-1.32.17,2.06,2.06,0,0,1-1.51-.56,2.7,2.7,0,0,1-.56-1.93V67h-.87V65.54h.87V64.13Z" transform="translate(-1.77 -4.4)"/><path class="cls-1" d="M32.78,71.89a5,5,0,0,1-1.81.29,3.15,3.15,0,0,1-3.44-3.32,3.39,3.39,0,0,1,3.72-3.46,4.65,4.65,0,0,1,1.54.25l-.31,1.5a2.9,2.9,0,0,0-1.14-.2,1.83,1.83,0,0,0,0,3.65,3.1,3.1,0,0,0,1.16-.2Z" transform="translate(-1.77 -4.4)"/><path class="cls-1" d="M33.9,62.6h2v3.72h0a2.37,2.37,0,0,1,.8-.67,2.23,2.23,0,0,1,1-.25c1.29,0,2.27.89,2.27,2.84v3.81h-2V68.47c0-.85-.29-1.44-1-1.44a1.07,1.07,0,0,0-1,.71,1.12,1.12,0,0,0-.07.45v3.86h-2Z" transform="translate(-1.77 -4.4)"/><path class="cls-1" d="M43.25,69.44c.07.84.89,1.24,1.84,1.24a5.48,5.48,0,0,0,1.79-.27l.27,1.37a6.38,6.38,0,0,1-2.36.4c-2.21,0-3.47-1.27-3.47-3.31a3.25,3.25,0,0,1,3.29-3.47c2.1,0,2.9,1.63,2.9,3.24a4.3,4.3,0,0,1-.07.8Zm2.38-1.38a1.18,1.18,0,0,0-1.14-1.32,1.33,1.33,0,0,0-1.25,1.32Z" transform="translate(-1.77 -4.4)"/><path class="cls-1" d="M50,65.54l.52,2.66c.14.68.27,1.4.37,2.15h0c.13-.75.32-1.49.48-2.13l.69-2.68h1.6l.65,2.6c.17.73.35,1.46.48,2.21h0c.09-.75.22-1.48.37-2.23l.56-2.58h2l-2,6.51h-1.9l-.61-2.29c-.16-.64-.28-1.22-.41-2h0a14.13,14.13,0,0,1-.43,2l-.65,2.29h-1.9L48,65.54Z" transform="translate(-1.77 -4.4)"/><path class="cls-1" d="M62.34,72.05l-.12-.65h0a2.34,2.34,0,0,1-1.86.8,2,2,0,0,1-2.11-2c0-1.69,1.52-2.5,3.82-2.49v-.09c0-.35-.18-.84-1.18-.84a3.74,3.74,0,0,0-1.8.49L58.68,66a5.39,5.39,0,0,1,2.53-.57,2.52,2.52,0,0,1,2.86,2.8v2.27a9.73,9.73,0,0,0,.09,1.58ZM62.1,69c-1.07,0-1.89.24-1.89,1a.72.72,0,0,0,.8.77A1.1,1.1,0,0,0,62.06,70a1.34,1.34,0,0,0,0-.35Z" transform="translate(-1.77 -4.4)"/><path class="cls-1" d="M65.61,72.05c0-.43,0-1.21,0-1.94V62.6h2v3.72h0a2.3,2.3,0,0,1,2-.92c1.56,0,2.7,1.29,2.69,3.28,0,2.35-1.49,3.52-3,3.52a2.16,2.16,0,0,1-2-1.06h0l-.08.91Zm2.07-2.77a1.79,1.79,0,0,0,0,.36,1.23,1.23,0,0,0,1.19,1c.86,0,1.4-.67,1.4-1.84,0-1-.46-1.81-1.4-1.81a1.27,1.27,0,0,0-1.19,1,2.21,2.21,0,0,0,0,.37Z" transform="translate(-1.77 -4.4)"/><path class="cls-1" d="M73.62,62.6h2v9.45h-2Z" transform="translate(-1.77 -4.4)"/><path class="cls-1" d="M78.83,69.44c.07.84.89,1.24,1.84,1.24a5.48,5.48,0,0,0,1.79-.27l.27,1.37a6.36,6.36,0,0,1-2.35.4c-2.21,0-3.48-1.27-3.48-3.31a3.26,3.26,0,0,1,3.29-3.47c2.1,0,2.9,1.63,2.9,3.24a4.3,4.3,0,0,1-.07.8Zm2.38-1.38a1.18,1.18,0,0,0-1.14-1.32,1.33,1.33,0,0,0-1.25,1.32Z" transform="translate(-1.77 -4.4)"/><path class="cls-1" d="M89.25,63.68v1.86H90.7V67H89.25v2.36c0,.78.18,1.14.79,1.14a3,3,0,0,0,.6,0l0,1.53a3.93,3.93,0,0,1-1.32.17,2.09,2.09,0,0,1-1.52-.56,2.7,2.7,0,0,1-.56-1.93V67H86.4V65.54h.86V64.13Z" transform="translate(-1.77 -4.4)"/><path class="cls-1" d="M95.57,72.05l-.12-.65h0a2.37,2.37,0,0,1-1.87.8,2,2,0,0,1-2.1-2c0-1.69,1.52-2.5,3.82-2.49v-.09c0-.35-.19-.84-1.18-.84a3.74,3.74,0,0,0-1.8.49L91.91,66a5.38,5.38,0,0,1,2.52-.57,2.52,2.52,0,0,1,2.86,2.8v2.27a9.56,9.56,0,0,0,.1,1.58ZM95.33,69c-1.07,0-1.89.24-1.89,1a.72.72,0,0,0,.79.77A1.12,1.12,0,0,0,95.29,70a2,2,0,0,0,0-.35Z" transform="translate(-1.77 -4.4)"/><path class="cls-1" d="M98.84,72.05c0-.43,0-1.21,0-1.94V62.6h2v3.72h0a2.28,2.28,0,0,1,2-.92c1.55,0,2.7,1.29,2.69,3.28,0,2.35-1.49,3.52-3,3.52a2.15,2.15,0,0,1-2-1.06h0l-.08.91Zm2.07-2.77a1.79,1.79,0,0,0,0,.36,1.22,1.22,0,0,0,1.19,1c.86,0,1.39-.67,1.39-1.84,0-1-.45-1.81-1.39-1.81A1.26,1.26,0,0,0,101,68a2.21,2.21,0,0,0,0,.37Z" transform="translate(-1.77 -4.4)"/><path class="cls-1" d="M106.84,62.6h2v9.45h-2Z" transform="translate(-1.77 -4.4)"/><path class="cls-1" d="M112.06,69.44c.06.84.89,1.24,1.83,1.24a5.5,5.5,0,0,0,1.8-.27l.27,1.37a6.38,6.38,0,0,1-2.36.4c-2.21,0-3.47-1.27-3.47-3.31a3.25,3.25,0,0,1,3.29-3.47c2.1,0,2.9,1.63,2.9,3.24a4.3,4.3,0,0,1-.07.8Zm2.38-1.38a1.18,1.18,0,0,0-1.14-1.32,1.32,1.32,0,0,0-1.25,1.32Z" transform="translate(-1.77 -4.4)"/><path class="cls-1" d="M119.79,63.68v1.86h1.45V67h-1.45v2.36c0,.78.18,1.14.8,1.14a2.94,2.94,0,0,0,.59,0l0,1.53a3.93,3.93,0,0,1-1.32.17,2.09,2.09,0,0,1-1.52-.56,2.7,2.7,0,0,1-.56-1.93V67h-.86V65.54h.86V64.13Z" transform="translate(-1.77 -4.4)"/><path class="cls-1" d="M122.39,70.28a4,4,0,0,0,1.75.49c.61,0,.86-.21.86-.54s-.2-.5-1-.75c-1.34-.45-1.86-1.18-1.85-2,0-1.21,1-2.13,2.65-2.13a4.38,4.38,0,0,1,1.84.37l-.36,1.4a3.17,3.17,0,0,0-1.41-.38c-.49,0-.77.2-.77.54s.25.46,1,.74c1.24.43,1.75,1.05,1.77,2,0,1.21-1,2.1-2.82,2.1a4.55,4.55,0,0,1-2.1-.45Z" transform="translate(-1.77 -4.4)"/></svg>