<svg id="Layer_1" data-name="Layer 1" xmlns="http://www.w3.org/2000/svg" viewBox="0 0 137.76 27.69"><defs><style>.cls-1{fill:#0058a0;}</style></defs><path class="cls-1" d="M10.52,11.18h7.12a8.26,8.26,0,0,1,3.28.52,4.1,4.1,0,0,1,1.8,1.49,4.66,4.66,0,0,1,.7,2.25,9.33,9.33,0,0,1-.25,2.73,10.38,10.38,0,0,1-1.38,3.49,8.11,8.11,0,0,1-2.05,2.08,6.84,6.84,0,0,1-2.42,1.12,13,13,0,0,1-3,.38H7.25l3.27-14.06Zm4.05,3.17-1.8,7.72H14a5.73,5.73,0,0,0,2.2-.31,2.88,2.88,0,0,0,1.24-1.06,7.1,7.1,0,0,0,.93-2.45c.35-1.49.32-2.52-.09-3.07a2.93,2.93,0,0,0-2.47-.83Zm20.22,7.36h-7.4a1.66,1.66,0,0,0,.2,1.2,1.45,1.45,0,0,0,1.27.57,2.78,2.78,0,0,0,1.1-.25,3.39,3.39,0,0,0,.77-.56l3.56.32a7,7,0,0,1-2.45,1.88,9,9,0,0,1-3.52.57,6.64,6.64,0,0,1-2.9-.49A3,3,0,0,1,24,23.4a4,4,0,0,1-.14-2.51A5.54,5.54,0,0,1,26,17.57a7.12,7.12,0,0,1,4.29-1.27,6.87,6.87,0,0,1,3.14.57,2.91,2.91,0,0,1,1.44,1.65,5.17,5.17,0,0,1,0,2.82l-.09.37ZM31.41,20.1a1.78,1.78,0,0,0-.25-1.39A1.45,1.45,0,0,0,30,18.29a2.18,2.18,0,0,0-1.55.64,2.74,2.74,0,0,0-.7,1.17Zm6-3.6h3.46l-.33,1.43a4.7,4.7,0,0,1,1.32-1.28,2.82,2.82,0,0,1,1.4-.35,3.57,3.57,0,0,1,1.68.47l-1.7,2.37a2.76,2.76,0,0,0-1-.24,1.69,1.69,0,0,0-1.25.54,6.3,6.3,0,0,0-1.24,2.87l-.68,2.93H35.42l2-8.74Zm10.94,2.84L45,19a4.33,4.33,0,0,1,.88-1.33,4.23,4.23,0,0,1,1.28-.83,5.39,5.39,0,0,1,1.49-.4,13.59,13.59,0,0,1,2-.14,16.36,16.36,0,0,1,2.63.17,2.84,2.84,0,0,1,1.52.7,1.92,1.92,0,0,1,.5,1,3.53,3.53,0,0,1,0,1.3l-.9,3.86a4.36,4.36,0,0,0-.14,1,3.17,3.17,0,0,0,.17.89H50.85a2.52,2.52,0,0,1-.16-.51,4.73,4.73,0,0,1,0-.54,6.74,6.74,0,0,1-1.65.89,7.37,7.37,0,0,1-2.37.36,3.42,3.42,0,0,1-2.45-.72,1.82,1.82,0,0,1-.48-1.79,2.89,2.89,0,0,1,1-1.63,5.75,5.75,0,0,1,2.6-1c1.45-.25,2.39-.43,2.82-.53s.9-.23,1.4-.39a1,1,0,0,0-.08-.88,1.29,1.29,0,0,0-.93-.25,3.11,3.11,0,0,0-1.43.27,2.11,2.11,0,0,0-.76.78ZM51.2,21.1c-.55.17-1.11.32-1.69.45a4.54,4.54,0,0,0-1.55.53,1,1,0,0,0-.45.62.65.65,0,0,0,.15.64,1.14,1.14,0,0,0,.84.26,2.93,2.93,0,0,0,1.21-.28,2.41,2.41,0,0,0,.91-.66,2.53,2.53,0,0,0,.46-1l.12-.54Zm6.62-4.6h3.46L61,17.77a6.42,6.42,0,0,1,1.77-1.13,5.2,5.2,0,0,1,1.91-.34,3.27,3.27,0,0,1,1.75.38,2,2,0,0,1,.84,1.09,8.08,8.08,0,0,1,1.86-1.16A5.17,5.17,0,0,1,71,16.3a2.69,2.69,0,0,1,2.23.84,3,3,0,0,1,.26,2.61l-1.27,5.49H68.45l1.17-5a1.18,1.18,0,0,0-.05-.88.9.9,0,0,0-.82-.46,1.77,1.77,0,0,0-1.15.43,2.58,2.58,0,0,0-.72,1.39l-1,4.51H62.12l1.12-4.81a2.64,2.64,0,0,0,.11-.78.81.81,0,0,0-.29-.54,1,1,0,0,0-.63-.2,1.72,1.72,0,0,0-1.15.44,2.58,2.58,0,0,0-.74,1.43l-1,4.46H55.79l2-8.74Zm21,2.84L75.35,19a4.52,4.52,0,0,1,.89-1.33,4.11,4.11,0,0,1,1.28-.83,5.29,5.29,0,0,1,1.49-.4,13.49,13.49,0,0,1,2-.14,16.44,16.44,0,0,1,2.63.17,2.8,2.8,0,0,1,1.51.7,1.79,1.79,0,0,1,.5,1,3.14,3.14,0,0,1,0,1.3l-.89,3.86a3.84,3.84,0,0,0-.14,1,3.17,3.17,0,0,0,.17.89H81.25a3.13,3.13,0,0,1-.15-.51,2.37,2.37,0,0,1,0-.54,6.74,6.74,0,0,1-1.65.89,7.37,7.37,0,0,1-2.37.36,3.4,3.4,0,0,1-2.45-.72,1.82,1.82,0,0,1-.48-1.79,2.88,2.88,0,0,1,1-1.63,5.79,5.79,0,0,1,2.61-1c1.44-.25,2.38-.43,2.82-.53s.9-.23,1.4-.39a1,1,0,0,0-.08-.88,1.29,1.29,0,0,0-.93-.25,3.11,3.11,0,0,0-1.43.27,2.11,2.11,0,0,0-.76.78Zm2.81,1.76c-.55.17-1.11.32-1.69.45a4.54,4.54,0,0,0-1.55.53,1,1,0,0,0-.45.62.65.65,0,0,0,.15.64,1.12,1.12,0,0,0,.84.26,2.93,2.93,0,0,0,1.21-.28,2.37,2.37,0,0,0,.9-.66,2.41,2.41,0,0,0,.46-1l.13-.54Zm5.77-4.6h4.4l1,2.45,2.35-2.45h4.08L94.9,20.67l2.46,4.57H93.05l-1.13-2.81-2.75,2.81h-4l4.56-4.57L87.38,16.5Zm12.12,0h4.39l1,2.45,2.35-2.45h4.08L107,20.67l2.46,4.57h-4.31L104,22.43l-2.75,2.81h-4l4.56-4.57L99.5,16.5Z" transform="translate(-6.63 -7)"/><path class="cls-1" d="M10.52,11.18h7.12a8.26,8.26,0,0,1,3.28.52,4.1,4.1,0,0,1,1.8,1.49,4.66,4.66,0,0,1,.7,2.25,9.33,9.33,0,0,1-.25,2.73,10.38,10.38,0,0,1-1.38,3.49,8.11,8.11,0,0,1-2.05,2.08,6.84,6.84,0,0,1-2.42,1.12,13,13,0,0,1-3,.38H7.25l3.27-14.06Zm4.05,3.17-1.8,7.72H14a5.73,5.73,0,0,0,2.2-.31,2.88,2.88,0,0,0,1.24-1.06,7.1,7.1,0,0,0,.93-2.45c.35-1.49.32-2.52-.09-3.07a2.93,2.93,0,0,0-2.47-.83Zm20.22,7.36h-7.4a1.66,1.66,0,0,0,.2,1.2,1.45,1.45,0,0,0,1.27.57,2.78,2.78,0,0,0,1.1-.25,3.39,3.39,0,0,0,.77-.56l3.56.32a7,7,0,0,1-2.45,1.88,9,9,0,0,1-3.52.57,6.64,6.64,0,0,1-2.9-.49A3,3,0,0,1,24,23.4a4,4,0,0,1-.14-2.51A5.54,5.54,0,0,1,26,17.57a7.12,7.12,0,0,1,4.29-1.27,6.87,6.87,0,0,1,3.14.57,2.91,2.91,0,0,1,1.44,1.65,5.17,5.17,0,0,1,0,2.82l-.09.37ZM31.41,20.1a1.78,1.78,0,0,0-.25-1.39A1.45,1.45,0,0,0,30,18.29a2.18,2.18,0,0,0-1.55.64,2.74,2.74,0,0,0-.7,1.17Zm6-3.6h3.46l-.33,1.43a4.7,4.7,0,0,1,1.32-1.28,2.82,2.82,0,0,1,1.4-.35,3.57,3.57,0,0,1,1.68.47l-1.7,2.37a2.76,2.76,0,0,0-1-.24,1.69,1.69,0,0,0-1.25.54,6.3,6.3,0,0,0-1.24,2.87l-.68,2.93H35.42l2-8.74Zm10.94,2.84L45,19a4.33,4.33,0,0,1,.88-1.33,4.23,4.23,0,0,1,1.28-.83,5.39,5.39,0,0,1,1.49-.4,13.59,13.59,0,0,1,2-.14,16.36,16.36,0,0,1,2.63.17,2.84,2.84,0,0,1,1.52.7,1.92,1.92,0,0,1,.5,1,3.53,3.53,0,0,1,0,1.3l-.9,3.86a4.36,4.36,0,0,0-.14,1,3.17,3.17,0,0,0,.17.89H50.85a2.52,2.52,0,0,1-.16-.51,4.73,4.73,0,0,1,0-.54,6.74,6.74,0,0,1-1.65.89,7.37,7.37,0,0,1-2.37.36,3.42,3.42,0,0,1-2.45-.72,1.82,1.82,0,0,1-.48-1.79,2.89,2.89,0,0,1,1-1.63,5.75,5.75,0,0,1,2.6-1c1.45-.25,2.39-.43,2.82-.53s.9-.23,1.4-.39a1,1,0,0,0-.08-.88,1.29,1.29,0,0,0-.93-.25,3.11,3.11,0,0,0-1.43.27,2.11,2.11,0,0,0-.76.78ZM51.2,21.1c-.55.17-1.11.32-1.69.45a4.54,4.54,0,0,0-1.55.53,1,1,0,0,0-.45.62.65.65,0,0,0,.15.64,1.14,1.14,0,0,0,.84.26,2.93,2.93,0,0,0,1.21-.28,2.41,2.41,0,0,0,.91-.66,2.53,2.53,0,0,0,.46-1l.12-.54Zm6.62-4.6h3.46L61,17.77a6.42,6.42,0,0,1,1.77-1.13,5.2,5.2,0,0,1,1.91-.34,3.27,3.27,0,0,1,1.75.38,2,2,0,0,1,.84,1.09,8.08,8.08,0,0,1,1.86-1.16A5.17,5.17,0,0,1,71,16.3a2.69,2.69,0,0,1,2.23.84,3,3,0,0,1,.26,2.61l-1.27,5.49H68.45l1.17-5a1.18,1.18,0,0,0-.05-.88.9.9,0,0,0-.82-.46,1.77,1.77,0,0,0-1.15.43,2.58,2.58,0,0,0-.72,1.39l-1,4.51H62.12l1.12-4.81a2.64,2.64,0,0,0,.11-.78.81.81,0,0,0-.29-.54,1,1,0,0,0-.63-.2,1.72,1.72,0,0,0-1.15.44,2.58,2.58,0,0,0-.74,1.43l-1,4.46H55.79l2-8.74Zm21,2.84L75.35,19a4.52,4.52,0,0,1,.89-1.33,4.11,4.11,0,0,1,1.28-.83,5.29,5.29,0,0,1,1.49-.4,13.49,13.49,0,0,1,2-.14,16.44,16.44,0,0,1,2.63.17,2.8,2.8,0,0,1,1.51.7,1.79,1.79,0,0,1,.5,1,3.14,3.14,0,0,1,0,1.3l-.89,3.86a3.84,3.84,0,0,0-.14,1,3.17,3.17,0,0,0,.17.89H81.25a3.13,3.13,0,0,1-.15-.51,2.37,2.37,0,0,1,0-.54,6.74,6.74,0,0,1-1.65.89,7.37,7.37,0,0,1-2.37.36,3.4,3.4,0,0,1-2.45-.72,1.82,1.82,0,0,1-.48-1.79,2.88,2.88,0,0,1,1-1.63,5.79,5.79,0,0,1,2.61-1c1.44-.25,2.38-.43,2.82-.53s.9-.23,1.4-.39a1,1,0,0,0-.08-.88,1.29,1.29,0,0,0-.93-.25,3.11,3.11,0,0,0-1.43.27,2.11,2.11,0,0,0-.76.78Zm2.81,1.76c-.55.17-1.11.32-1.69.45a4.54,4.54,0,0,0-1.55.53,1,1,0,0,0-.45.62.65.65,0,0,0,.15.64,1.12,1.12,0,0,0,.84.26,2.93,2.93,0,0,0,1.21-.28,2.37,2.37,0,0,0,.9-.66,2.41,2.41,0,0,0,.46-1l.13-.54Zm5.77-4.6h4.4l1,2.45,2.35-2.45h4.08L94.9,20.67l2.46,4.57H93.05l-1.13-2.81-2.75,2.81h-4l4.56-4.57L87.38,16.5Zm12.12,0h4.39l1,2.45,2.35-2.45h4.08L107,20.67l2.46,4.57h-4.31L104,22.43l-2.75,2.81h-4l4.56-4.57L99.5,16.5Z" transform="translate(-6.63 -7)"/><path class="cls-1" d="M7.49,34.69a5.35,5.35,0,0,1-.86-2.87A4.75,4.75,0,0,1,7,30,6.39,6.39,0,0,1,8,28.32a14.9,14.9,0,0,1,1.51-1.43h.79A8.64,8.64,0,0,0,9,28.32a6.81,6.81,0,0,0-1.05,1.81,5.09,5.09,0,0,0-.33,1.78,7.09,7.09,0,0,0,.62,2.78Z" transform="translate(-6.63 -7)"/><path class="cls-1" d="M13.76,32.31A2.79,2.79,0,0,1,12,33a2.12,2.12,0,0,1-1.38-.45,1.58,1.58,0,0,1-.56-1.3,2.49,2.49,0,0,1,.44-1.43,2.76,2.76,0,0,1,1.1-1,2.89,2.89,0,0,1,1.31-.33,1.88,1.88,0,0,1,1.65.79L15.19,27h1l-1.69,5.94h-.93l.18-.63ZM11,31.13a1.55,1.55,0,0,0,.13.71,1,1,0,0,0,.41.43,1.43,1.43,0,0,0,.71.17,1.77,1.77,0,0,0,1.24-.52,2.21,2.21,0,0,0,.74-1.69,1,1,0,0,0-.37-.8,1.45,1.45,0,0,0-.92-.29,1.76,1.76,0,0,0-.66.12,1.84,1.84,0,0,0-.58.4,2.37,2.37,0,0,0-.5.71,1.91,1.91,0,0,0-.2.76Z" transform="translate(-6.63 -7)"/><path class="cls-1" d="M20.39,31.47l1,.06a2.22,2.22,0,0,1-1,1,3.27,3.27,0,0,1-1.8.48,3.07,3.07,0,0,1-1.19-.22,1.76,1.76,0,0,1-.83-.64,1.66,1.66,0,0,1-.29-.95,2.43,2.43,0,0,1,.45-1.37,2.73,2.73,0,0,1,1.15-1,3.71,3.71,0,0,1,1.53-.32,2.67,2.67,0,0,1,1.67.48,1.53,1.53,0,0,1,.63,1.29,3,3,0,0,1-.08.65H17.32a2,2,0,0,0,0,.22,1.13,1.13,0,0,0,.38.92,1.35,1.35,0,0,0,.93.32,2.3,2.3,0,0,0,1-.24,1.76,1.76,0,0,0,.77-.71Zm-2.91-1.09h3.3a1,1,0,0,0,0-.16,1,1,0,0,0-.38-.81,1.55,1.55,0,0,0-1-.29,2.29,2.29,0,0,0-1.17.32,1.94,1.94,0,0,0-.79.94Z" transform="translate(-6.63 -7)"/><path class="cls-1" d="M22.39,32.94l1.21-4.31h.89l-.26.89a3.78,3.78,0,0,1,.89-.74,1.83,1.83,0,0,1,.89-.24,2.31,2.31,0,0,1,.73.15l-.41.68a1.33,1.33,0,0,0-.57-.13,1.82,1.82,0,0,0-1.07.43,2.91,2.91,0,0,0-.87,1.54l-.49,1.73Z" transform="translate(-6.63 -7)"/><path class="cls-1" d="M30.07,32.4a4.31,4.31,0,0,1-1,.48,3.75,3.75,0,0,1-1,.14,2.22,2.22,0,0,1-1.3-.35,1,1,0,0,1-.5-.89,1,1,0,0,1,.22-.64,1.53,1.53,0,0,1,.6-.45,3.25,3.25,0,0,1,.9-.24c.21,0,.64-.05,1.27-.07a6.19,6.19,0,0,0,1.37-.15,1.38,1.38,0,0,0,.12-.49.45.45,0,0,0-.26-.4,2.16,2.16,0,0,0-1-.2,2.19,2.19,0,0,0-1,.21,1.26,1.26,0,0,0-.59.57l-1-.06a2.12,2.12,0,0,1,1-1,3.82,3.82,0,0,1,1.69-.34,3.31,3.31,0,0,1,1.73.39.85.85,0,0,1,.49.74,2.87,2.87,0,0,1-.14.79l-.33,1.07a3,3,0,0,0-.15.83,2.18,2.18,0,0,0,.12.58h-1a1.8,1.8,0,0,1-.12-.54Zm.38-1.64a3.12,3.12,0,0,1-.46.09l-.8.07a7.21,7.21,0,0,0-1.24.14,1.18,1.18,0,0,0-.55.27.58.58,0,0,0,.11.92,1.48,1.48,0,0,0,.83.19,2.45,2.45,0,0,0,1-.19,1.73,1.73,0,0,0,.73-.53,2.45,2.45,0,0,0,.42-1Z" transform="translate(-6.63 -7)"/><path class="cls-1" d="M36.51,31.37l1,.06a2.57,2.57,0,0,1-1.07,1.2,3.2,3.2,0,0,1-1.59.39,2.52,2.52,0,0,1-1.55-.45,1.5,1.5,0,0,1-.6-1.27,2.72,2.72,0,0,1,.39-1.37,2.47,2.47,0,0,1,1.09-1,3.56,3.56,0,0,1,1.63-.36,2.57,2.57,0,0,1,1.5.39,1.21,1.21,0,0,1,.55,1l-1,.06a.76.76,0,0,0-.32-.65,1.4,1.4,0,0,0-.85-.24,1.92,1.92,0,0,0-1,.28,1.89,1.89,0,0,0-.7.84,2.65,2.65,0,0,0-.25,1.09,1,1,0,0,0,.33.82,1.29,1.29,0,0,0,.83.27,1.91,1.91,0,0,0,.95-.26,1.83,1.83,0,0,0,.71-.81Z" transform="translate(-6.63 -7)"/><path class="cls-1" d="M38.24,31.3a2.57,2.57,0,0,1,1-2.08,3.36,3.36,0,0,1,2.18-.68,2.79,2.79,0,0,1,1.7.49,1.55,1.55,0,0,1,.65,1.3,2.51,2.51,0,0,1-.41,1.38,2.59,2.59,0,0,1-1.16,1,3.71,3.71,0,0,1-1.58.34,3.3,3.3,0,0,1-1.24-.22,1.87,1.87,0,0,1-.85-.6,1.49,1.49,0,0,1-.29-.9Zm1-.08a1.08,1.08,0,0,0,.4.91,1.56,1.56,0,0,0,1,.31,2.3,2.3,0,0,0,.64-.09,1.91,1.91,0,0,0,.59-.29,1.75,1.75,0,0,0,.46-.44,1.89,1.89,0,0,0,.31-.53,1.8,1.8,0,0,0,.18-.76,1.07,1.07,0,0,0-.41-.89,1.58,1.58,0,0,0-1-.32,2.16,2.16,0,0,0-.86.16,2.23,2.23,0,0,0-.71.48,2.11,2.11,0,0,0-.46.72,2.5,2.5,0,0,0-.14.74Z" transform="translate(-6.63 -7)"/><path class="cls-1" d="M43.94,32.94l2.54-2.18L45,28.63h1.1l.52.75c.18.29.34.57.48.82l1.7-1.57H50L47.6,30.8l1.5,2.14H48l-.59-.88c-.13-.18-.27-.4-.43-.67L45.2,32.94Z" transform="translate(-6.63 -7)"/><path class="cls-1" d="M50,32.94l1.22-4.31h1l-1.23,4.31Zm1.45-5.12.24-.82h1l-.24.82Z" transform="translate(-6.63 -7)"/><path class="cls-1" d="M52.51,32.94,54.2,27h1l-.6,2.13a3.85,3.85,0,0,1,.83-.45,2.29,2.29,0,0,1,.78-.14,2,2,0,0,1,1.33.45,1.61,1.61,0,0,1,.53,1.31,2.54,2.54,0,0,1-.21,1,2.67,2.67,0,0,1-.53.79,3.3,3.3,0,0,1-.65.51,3.38,3.38,0,0,1-.69.29,2.83,2.83,0,0,1-.68.09,2.07,2.07,0,0,1-1-.22,1.47,1.47,0,0,1-.67-.66l-.24.8ZM54,31.18v.14a1,1,0,0,0,.35.82,1.32,1.32,0,0,0,.87.28,1.68,1.68,0,0,0,.93-.27,1.88,1.88,0,0,0,.7-.83,2.48,2.48,0,0,0,.27-1.05,1,1,0,0,0-.34-.83,1.24,1.24,0,0,0-.85-.3,1.6,1.6,0,0,0-1,.31,2.28,2.28,0,0,0-.73.93,1.9,1.9,0,0,0-.24.8Z" transform="translate(-6.63 -7)"/><path class="cls-1" d="M60.66,26.89a5.39,5.39,0,0,1,.87,2.87,4.77,4.77,0,0,1-.35,1.83,6.1,6.1,0,0,1-1.07,1.67,13.85,13.85,0,0,1-1.51,1.43h-.78a9,9,0,0,0,1.35-1.43,7,7,0,0,0,1-1.81,5.31,5.31,0,0,0,.32-1.78,7.19,7.19,0,0,0-.6-2.78Z" transform="translate(-6.63 -7)"/><path class="cls-1" d="M124.2,20.73c0-6.86-43.06-12.64-96.74-12.64-5.72,0-11.56-.18-17-.06a.17.17,0,1,1,0-.33c8.89-.29,18-.7,27.64-.7,58.46,0,106.3,5.74,106.3,13.09,0,6.35-34.62,11.45-81.46,12.77a.17.17,0,1,1,0-.33c36.81-1.83,61.3-6.53,61.3-11.8Z" transform="translate(-6.63 -7)"/><path class="cls-1" d="M113.65,16.34a1.58,1.58,0,1,1-1.57,1.58,1.57,1.57,0,0,1,1.56-1.58Zm0,.25a1.34,1.34,0,1,0,1.27,1.34,1.3,1.3,0,0,0-1.27-1.34Zm-.3,2.25h-.28V17.08a3.37,3.37,0,0,1,.5,0,.92.92,0,0,1,.55.13.46.46,0,0,1-.18.79v0c.15,0,.25.16.29.42a1.48,1.48,0,0,0,.11.44H114a1.27,1.27,0,0,1-.12-.45.33.33,0,0,0-.38-.31h-.2Zm0-1h.21c.23,0,.42-.08.42-.3s-.11-.31-.42-.31l-.21,0Z" transform="translate(-6.63 -7)"/></svg>