<svg id="Layer_1" data-name="Layer 1" xmlns="http://www.w3.org/2000/svg" viewBox="0 0 918.23 484.46"><defs><style>.cls-1{fill:#3d2d7a;}.cls-2{fill:#fcb918;}.cls-3{fill:#f99e1e;}.cls-4{fill:#474648;}</style></defs><path class="cls-1" d="M.28,292.39H87.17v-20H21V225.12H79.16V205.07H21V164.79H87.17v-20H.28Zm172.73,0h20.67V236.92c0-34.38-18.35-51.67-46.4-51.67s-46.4,17.29-46.4,51.67v55.47h20.67V236.92c0-21.09,9.07-31.63,25.73-31.63S173,215.83,173,236.92Zm87.32.63V273c-15.19-1.47-22.78-11-22.78-30.57V207h22.78v-20H237.55V149.19H216.88v37.75h-15.6v20h15.6v35.65C217.09,275.31,234,292,260.33,293m103.34-5.9V186.94H343v56.73c0,20.25-9.07,30.37-25.73,30.37s-25.73-10.54-25.73-31.63V186.94H270.87v55.47c0,34.37,18.35,51.67,46.4,51.67,10.34,0,19.61-3.59,25.52-10.12v5.68c0,14.56-9.7,24.9-25.52,24.9-9.49,0-16.66-4.22-21.72-12.66h-23.2c7.38,20,23.83,32.69,44.92,32.69,26.58,0,46.4-20.67,46.4-47.45m34.38-47.46c0-19.19,14.77-34.37,33.95-34.37a33,33,0,0,1,27.84,14.77H482A52.92,52.92,0,0,0,462.58,195a51.35,51.35,0,0,0-30.79-9.7c-29.31-.64-55,25.1-54.41,54.41-.63,29.32,25.1,55,54.41,54.42a52.68,52.68,0,0,0,30.79-9.49A51.39,51.39,0,0,0,482,259.7H459.42A32.15,32.15,0,0,1,432,274c-19,0-33.95-15.18-33.95-34.38m182.64-9.27H517c4-15,16-25.1,32-25.1,15,0,27.63,10.54,31.64,25.1m22.14,7.38c-.84-31.85-27-52.52-54.41-52.52-29.32-.64-54.2,25.31-53.57,54.63-.63,29.31,24.47,54.83,54.2,54.2a55.39,55.39,0,0,0,49.35-30.37l-24.67-.21c-6.54,7-15,10.54-25.31,10.54-16.87,0-29.74-11-31.42-26.78h85.2a63.35,63.35,0,0,0,.63-9.49"/><path class="cls-2" d="M281.07,111.3c1-11.58,9.88-23.83,19.69-35.94,0,0,15.95-18.94,22.73-27.45a42,42,0,0,0,4.05-6.09c.84-1.66,1.57-3.27,2.16-4.8a28.85,28.85,0,0,0,1.71-10c-.54-16.72-14.33-27-14.33-27s13.42,16.75-2.68,37c-6.79,8.52-22.74,27.46-22.74,27.46C281.85,76.55,273,88.8,272,100.38c-1.37,16.21,10.06,27.14,13.55,30.08a32.5,32.5,0,0,1-4.45-19.16"/><path class="cls-3" d="M297.16,126.43c1-11.57,9.87-23.82,19.69-35.94,0,0,16-18.93,22.73-27.45A42,42,0,0,0,343.64,57c.83-1.66,1.56-3.27,2.15-4.81a28.8,28.8,0,0,0,1.71-10c-.54-16.72-14.33-27-14.33-27s13.42,16.75-2.69,37c-6.77,8.51-22.72,27.45-22.72,27.45-9.82,12.11-18.71,24.36-19.7,35.94-1.37,16.2,10.06,27.14,13.55,30.08a32.59,32.59,0,0,1-4.45-19.17"/><path class="cls-2" d="M313.19,169.1c1-11.57,9.87-23.82,19.69-35.94,0,0,15.95-18.93,22.73-27.44a42.54,42.54,0,0,0,4.05-6.09,51.79,51.79,0,0,0,2.16-4.81,28.77,28.77,0,0,0,1.7-10c-.54-16.72-14.32-27-14.32-27s13.42,16.75-2.69,37c-6.78,8.51-22.73,27.45-22.73,27.45-9.82,12.12-18.71,24.36-19.69,35.94-1.38,16.21,10.05,27.14,13.55,30.08a32.51,32.51,0,0,1-4.45-19.17"/><path class="cls-1" d="M617.23,183.85a13.66,13.66,0,0,1,4.38,3,13.29,13.29,0,0,1,2.93,4.41,14.59,14.59,0,0,1,0,10.92,13.52,13.52,0,0,1-2.93,4.39,13.72,13.72,0,0,1-4.38,2.92,14.15,14.15,0,0,1-5.5,1.07,13.93,13.93,0,0,1-5.47-1.07,13.53,13.53,0,0,1-4.41-2.92,14.35,14.35,0,0,1-2.93-15.31,13.77,13.77,0,0,1,2.93-4.41,13.47,13.47,0,0,1,4.41-3,14.1,14.1,0,0,1,5.47-1,14.33,14.33,0,0,1,5.5,1m-10.18,1.85a11.64,11.64,0,0,0-3.71,2.55A11.41,11.41,0,0,0,600.9,192a12.8,12.8,0,0,0,0,9.33,11.44,11.44,0,0,0,6.15,6.3,12.17,12.17,0,0,0,9.33,0,11.35,11.35,0,0,0,3.7-2.54,11.59,11.59,0,0,0,2.47-3.76,12.67,12.67,0,0,0,0-9.33,11.72,11.72,0,0,0-6.17-6.31,12.17,12.17,0,0,0-9.33,0m-.35,19v-16h6.15a5.77,5.77,0,0,1,4,1.14,4.28,4.28,0,0,1,1.24,3.3,4.68,4.68,0,0,1-.32,1.83,3.54,3.54,0,0,1-.87,1.32,4.35,4.35,0,0,1-1.29.86,6.4,6.4,0,0,1-1.54.46l4.77,7.13H616.5L612,197.56h-3.32v7.13Zm6.36-8.85a5.45,5.45,0,0,0,1.55-.32,2.4,2.4,0,0,0,1.07-.84,2.68,2.68,0,0,0,.42-1.59,2.76,2.76,0,0,0-.31-1.38,2.56,2.56,0,0,0-.86-.84,4,4,0,0,0-1.22-.44,9.19,9.19,0,0,0-1.42-.11h-3.62v5.58h2.62c.59,0,1.19,0,1.77-.06"/><path class="cls-4" d="M811.11,379.94h-7.42v74.71h7.42Zm-396.71,0H407v74.71h7.42ZM7.4,441.61v-78.4c0-4.84.54-8.95,2-12,1.61-3.69,4.24-6.34,6.87-9.27l-5-5.57c-3.58,3.95-6.47,7.19-8.6,11.73C.4,352.78,0,357.33,0,362.32v80.13c0,5,.4,9.57,2.64,14.27,1.86,4,5,7.77,8.6,11.76l5-5.62c-2.63-2.92-5.26-5.58-6.87-9.22-1.43-3.12-2-7.2-2-12m24.71,3.52c-3.05-4.12-3.31-11.76-3.31-27.74s.26-23.8,3.31-27.91a8.73,8.73,0,0,1,6.87-3.4,7.93,7.93,0,0,1,6.61,3.12c2.38,2.92,2.63,6.88,2.63,10.55h7.27c-.13-6-.79-12.05-4.77-16.43-2.89-3.38-6.72-4.56-11.86-4.56a15,15,0,0,0-12.44,6c-4.09,5.41-5,14.95-5,32.59s.94,27.14,5,32.57c2.9,4,7.41,5.88,12.44,5.88s9-1.46,11.86-4.86c3.32-3.79,4.64-9,4.77-16H48.22c0,4.4-.39,7.92-2.77,10.58a8.31,8.31,0,0,1-6.47,2.9,8.71,8.71,0,0,1-6.87-3.34M85.59,435c0,7.77-3.82,13.48-9.76,13.48-6.48,0-9.39-5.71-9.39-14.66,0-5,1.32-9.53,3.57-12a10.33,10.33,0,0,1,8.19-3.25h7.39Zm.28,19.66H93V399c0-7.34-1.59-12-4.62-15.57-2.66-3.07-6.75-4.69-12-4.69a15.23,15.23,0,0,0-11.63,5c-3.83,4.25-4.87,9.83-4.87,15.41h7.39c0-5,.92-7.92,3-10.43A7.94,7.94,0,0,1,76.35,386c6.21,0,9.24,4.54,9.24,12.77v13.35H77.93c-6.07,0-9.9,1.62-13.21,5C60.89,420.89,59,426.91,59,434c0,8.07,1.85,13.94,4.36,16.88a13.52,13.52,0,0,0,10.71,5,11.54,11.54,0,0,0,8.07-2.95,15.51,15.51,0,0,0,3.69-5Zm43.61-37.26c0,16-.4,23.62-3.44,27.74a8.38,8.38,0,0,1-6.49,3.34,8.59,8.59,0,0,1-6.34-2.62c-2-2.21-3.15-5.57-3.15-10.42V399.17c0-4.83,1.17-8.07,3.15-10.27a8.62,8.62,0,0,1,6.34-2.82,8.41,8.41,0,0,1,6.49,3.4c3,4.11,3.44,11.88,3.44,27.91m2.37,33.13c4.1-5.26,5-14.52,5-33.13s-.91-28.06-5-33.34a12.85,12.85,0,0,0-10.43-5.29,11.75,11.75,0,0,0-7.68,2.64,15.07,15.07,0,0,0-3.82,4.56v-6h-7.28V484.46h7.42V449.09a12.69,12.69,0,0,0,3.68,4.4,13.2,13.2,0,0,0,18.11-3m33.27-64h1.59v-7.78a15.51,15.51,0,0,0-11.5,4.42,16.44,16.44,0,0,0-3.3,4.68v-7.92h-7.26v74.71H152V401.07c0-8.95,5.17-14.53,13.09-14.53m30.14,30.85c0,16-.39,23.62-3.44,27.74a8.22,8.22,0,0,1-6.6,3.34,8.5,8.5,0,0,1-6.75-3.34c-3-4.12-3.3-11.76-3.3-27.74s.26-23.8,3.3-27.91a8.52,8.52,0,0,1,6.75-3.4,8.24,8.24,0,0,1,6.6,3.4c3.05,4.11,3.44,11.88,3.44,27.91M197.63,450c4.1-5.43,5-15,5-32.57s-.92-27.18-5-32.59c-2.92-4-7-6-12.41-6s-9.53,2.06-12.43,6c-4.09,5.41-5,14.95-5,32.59s.93,27.14,5,32.57c2.9,4,7,5.88,12.43,5.88s9.49-1.92,12.41-5.88m64.89,4.69h7.38V398.58c0-7.48-1.45-11.61-4.09-14.68-2.77-3.23-5.81-5.14-11.37-5.14a13.7,13.7,0,0,0-8.05,2.64,18.53,18.53,0,0,0-4.62,5.29c-2.65-4.55-7.54-7.93-12.57-7.93a12.23,12.23,0,0,0-7.65,2.64,15.12,15.12,0,0,0-3.84,4.56v-6h-7.26v74.71h7.39V398.42c0-8.21,4.23-12.15,9.38-12.15s9.24,3.94,9.24,12.15v56.23h7.4V398.42c0-8.21,4.24-12.15,9.41-12.15s9.25,3.94,9.25,12.15Zm42.25-37.26c0,16-.4,23.62-3.44,27.74a8.2,8.2,0,0,1-6.59,3.34,8.43,8.43,0,0,1-6.74-3.34c-3.06-4.12-3.32-11.76-3.32-27.74s.26-23.8,3.32-27.91a8.45,8.45,0,0,1,6.74-3.4,8.22,8.22,0,0,1,6.59,3.4c3,4.11,3.44,11.88,3.44,27.91M307.16,450c4.08-5.43,5-15,5-32.57s-.93-27.18-5-32.59c-2.92-4-7-6-12.42-6s-9.54,2.06-12.43,6c-4.12,5.41-5,14.95-5,32.59s.91,27.14,5,32.57c2.89,4,7,5.88,12.43,5.88s9.5-1.92,12.42-5.88m33.27-63.42H342v-7.78a15.44,15.44,0,0,0-11.48,4.42,16.49,16.49,0,0,0-3.32,4.68v-7.92h-7.28v74.71h7.4V401.07c0-8.95,5.17-14.53,13.09-14.53m10.17,25.4c.12-12.61.66-19.07,3.3-22.46a8.35,8.35,0,0,1,6.75-3.4,8,8,0,0,1,6.6,3.4c2.65,3.39,3.17,9.85,3.31,22.46Zm0,6.59H378c0-18-.52-28.62-5.29-34.34a16,16,0,0,0-24,0c-4.5,5.29-5.41,15.29-5.41,33.2s.91,27.74,5.41,33c2.89,3.52,6.86,5.44,12.14,5.44a16.27,16.27,0,0,0,12.17-5.13c3.43-4,4.74-8.54,4.88-15.72h-7.26c0,4.52-1.06,8.21-3.05,10.58a8.46,8.46,0,0,1-6.74,2.9,8.32,8.32,0,0,1-6.74-3.34c-3-3.83-3.43-11.32-3.43-26.6m39,31.43c3.69,3.81,8.32,4.69,13.34,4.69v-7.34c-7.41,0-11-4.55-11-12.63V350.15h-7.4v84.53c0,7.49,1.85,12,5,15.28m16.36-87.18h9.51V352.2h-9.51Zm44.66,91.87H458V398.58c0-7.48-1.44-11.61-4.1-14.68a13.26,13.26,0,0,0-10.57-5.14,12.26,12.26,0,0,0-7.66,2.64,15.21,15.21,0,0,0-3.82,4.56v-6h-7.27v74.71H432V398.42c0-8.21,4.2-12.15,9.37-12.15s9.24,3.94,9.24,12.15Zm61.68-37.26c0,16-.39,23.62-3.42,27.74a8.22,8.22,0,0,1-6.61,3.34,8.49,8.49,0,0,1-6.74-3.34c-3-4.12-3.32-11.76-3.32-27.74s.28-23.8,3.32-27.91a8.51,8.51,0,0,1,6.74-3.4,8.24,8.24,0,0,1,6.61,3.4c3,4.11,3.42,11.88,3.42,27.91M514.67,450c4.1-5.43,5-15,5-32.57s-.92-27.18-5-32.59c-2.92-4-7-6-12.42-6s-9.51,2.06-12.43,6c-4.08,5.41-5,14.95-5,32.59s.95,27.14,5,32.57c2.92,4,7,5.88,12.43,5.88s9.5-1.92,12.42-5.88M548,386.54h1.59v-7.78c-4.51,0-8.46,1.33-11.5,4.42a16.85,16.85,0,0,0-3.3,4.68v-7.92h-7.27v74.71h7.39V401.07c0-8.95,5.15-14.53,13.09-14.53M576.11,435c0,7.77-3.85,13.48-9.8,13.48-6.47,0-9.36-5.71-9.36-14.66,0-5,1.3-9.53,3.55-12a10.38,10.38,0,0,1,8.21-3.25h7.4Zm.26,19.66h7.13V399c0-7.34-1.59-12-4.63-15.57-2.63-3.07-6.75-4.69-12-4.69a15.24,15.24,0,0,0-11.63,5c-3.83,4.25-4.89,9.83-4.89,15.41h7.4c0-5,.93-7.92,3-10.43a7.92,7.92,0,0,1,6.07-2.78c6.21,0,9.26,4.54,9.26,12.77v13.35h-7.67c-6.07,0-9.91,1.62-13.22,5-3.83,3.81-5.67,9.83-5.67,16.87,0,8.07,1.84,13.94,4.34,16.88a13.54,13.54,0,0,0,10.72,5,11.45,11.45,0,0,0,8-2.95,15.54,15.54,0,0,0,3.71-5ZM597.49,450c3.7,3.81,8.34,4.69,13.35,4.69v-7.34c-7.38,0-11-4.55-11-12.63V350.15h-7.4v84.53c0,7.49,1.85,12,5,15.28m42.41-45.8a13.68,13.68,0,0,1-1.32-6.46c0-3.08.78-6.6,2.89-8.8a8.91,8.91,0,0,1,7-2.82,8.19,8.19,0,0,1,6.6,3c2.11,2.48,2.91,5.29,2.91,10.86h7.41c0-7.19-1.6-12.48-4.9-16.15-3-3.38-7-5-12-5a15.76,15.76,0,0,0-12,5.14,20.86,20.86,0,0,0-5.3,14.11A21.12,21.12,0,0,0,633,407.4a24.81,24.81,0,0,0,8.73,8.81l8.44,5.14a17.88,17.88,0,0,1,6.74,6.45,15.92,15.92,0,0,1,1.87,8.07,13.66,13.66,0,0,1-3,9.26,9.88,9.88,0,0,1-7.67,3.34,8.94,8.94,0,0,1-6.75-3.05c-2.49-2.79-3.41-6.3-3.41-11h-7.41c0,6.33,1.45,11.74,5.27,16.11a15.87,15.87,0,0,0,12.3,5.32,16.77,16.77,0,0,0,12.81-5.74,21.67,21.67,0,0,0,5.29-14.53,24.41,24.41,0,0,0-2.64-11.73c-1.84-3.38-4.74-6-9.12-8.82l-8.32-5.28c-3-1.91-5.29-3.68-6.2-5.58m57.86,13.23c0,16-.4,23.62-3.42,27.74a8.24,8.24,0,0,1-6.61,3.34,8.46,8.46,0,0,1-6.74-3.34c-3.06-4.12-3.31-11.76-3.31-27.74s.25-23.8,3.31-27.91a8.48,8.48,0,0,1,6.74-3.4,8.26,8.26,0,0,1,6.61,3.4c3,4.11,3.42,11.88,3.42,27.91M700.15,450c4.1-5.43,5-15,5-32.57s-.91-27.18-5-32.59c-2.92-4-7-6-12.42-6s-9.53,2.06-12.43,6c-4.1,5.41-5,14.95-5,32.59s.93,27.14,5,32.57c2.9,4,7,5.88,12.43,5.88s9.5-1.92,12.42-5.88m17,0c3.7,3.81,8.32,4.69,13.34,4.69v-7.34c-7.39,0-11-4.55-11-12.63V350.15h-7.4v84.53c0,7.49,1.87,12,5,15.28m43.05,4.69h7.28V379.94h-7.4v56.24c0,8.2-4.22,12.16-9.38,12.16s-9.25-4-9.25-12.16V379.94h-7.4V436c0,7.51,1.45,11.76,4.1,14.83a13.22,13.22,0,0,0,10.58,5,12.48,12.48,0,0,0,7.66-2.64,15.11,15.11,0,0,0,3.81-4.57ZM784.81,450c4,4.08,9,4.69,14.38,4.69v-7.34c-7.78,0-12-3.67-12-12.63V387h11.5v-6.45h-11.5V358.07h-7.4v22.45h-8.2V387h8.2v47.71c0,6.93,1.71,11.9,5,15.28m17.84-87.18h9.5V352.2h-9.5Zm44,54.61c0,16-.4,23.62-3.45,27.74a8.23,8.23,0,0,1-6.6,3.34,8.5,8.5,0,0,1-6.75-3.34c-3-4.12-3.3-11.76-3.3-27.74s.26-23.8,3.3-27.91a8.52,8.52,0,0,1,6.75-3.4,8.25,8.25,0,0,1,6.6,3.4c3,4.11,3.45,11.88,3.45,27.91M849,450c4.11-5.43,5-15,5-32.57s-.94-27.18-5-32.59c-2.89-4-7-6-12.4-6s-9.51,2.06-12.42,6c-4.1,5.41-5,14.95-5,32.59s.93,27.14,5,32.57c2.91,4,7,5.88,12.42,5.88s9.51-1.92,12.4-5.88m38.72,4.69h7.4V398.58c0-7.48-1.44-11.61-4.1-14.68a13.24,13.24,0,0,0-10.56-5.14,12.29,12.29,0,0,0-7.67,2.64A15.24,15.24,0,0,0,869,386v-6h-7.28v74.71h7.41V398.42c0-8.21,4.22-12.15,9.38-12.15s9.25,3.94,9.25,12.15Zm30.51-12.2V362.32c0-5-.4-9.54-2.63-14.24-2.11-4.54-5.17-7.78-8.72-11.73l-5,5.57c2.65,2.93,5.41,5.58,7,9.27,1.46,3.07,2,7.18,2,12v78.4c0,4.83-.52,8.91-2,12-1.59,3.64-4.35,6.3-7,9.22l5,5.62c3.55-4,6.88-7.8,8.72-11.76,2.23-4.7,2.63-9.25,2.63-14.27"/></svg>