<svg id="Seresto" xmlns="http://www.w3.org/2000/svg" viewBox="0 0 232.86 68.63"><defs><style>.cls-1{fill:#fff;}.cls-2{fill:#00638e;}</style></defs><rect class="cls-1" width="232.86" height="68.63"/><rect class="cls-2" x="2.23" y="2.23" width="228.4" height="64.17"/><path class="cls-1" d="M19,47.49l4.93-5.9c3.41,2.81,7,4.6,11.31,4.6,3.41,0,5.47-1.35,5.47-3.57v-.11c0-2.11-1.3-3.2-7.63-4.82-7.64-1.95-12.56-4.06-12.56-11.59V26c0-6.88,5.52-11.43,13.26-11.43a22,22,0,0,1,14.08,4.82l-4.33,6.28c-3.36-2.33-6.66-3.73-9.86-3.73s-4.87,1.46-4.87,3.3v.11c0,2.49,1.62,3.3,8.18,5,7.68,2,12,4.76,12,11.37v.11c0,7.52-5.73,11.74-13.91,11.74A24.12,24.12,0,0,1,19,47.49Zm32.81-8.82v-.11c0-8.29,5.9-15.11,14.34-15.11,9.69,0,14.13,7.53,14.13,15.76,0,.65-.05,1.4-.1,2.16H60a6.73,6.73,0,0,0,7.09,5.69,9.52,9.52,0,0,0,7-3l4.71,4.17A14.52,14.52,0,0,1,67,53.66C58.26,53.66,51.82,47.54,51.82,38.67Zm20.46-2.44c-.49-3.68-2.65-6.17-6.12-6.17s-5.63,2.43-6.28,6.17ZM84.78,24H93v5.85c1.68-4,4.39-6.6,9.26-6.39v8.61h-.43c-5.47,0-8.83,3.3-8.83,10.23V53H84.78Zm19.87,14.68v-.11c0-8.29,5.9-15.11,14.35-15.11,9.69,0,14.13,7.53,14.13,15.76,0,.65-.06,1.4-.11,2.16h-20.2a6.74,6.74,0,0,0,7.1,5.69,9.53,9.53,0,0,0,7-3l4.71,4.17a14.54,14.54,0,0,1-11.86,5.41C111.09,53.66,104.65,47.54,104.65,38.67Zm20.46-2.44c-.48-3.68-2.65-6.17-6.11-6.17s-5.63,2.43-6.28,6.17Zm9.69,12.94,3.52-5.42a16.37,16.37,0,0,0,9.15,3.47c2.38,0,3.47-.87,3.47-2.17v-.11c0-1.78-2.82-2.38-6-3.35-4.06-1.19-8.67-3.09-8.67-8.72v-.11c0-5.9,4.77-9.2,10.62-9.2a20.08,20.08,0,0,1,10.82,3.36l-3.14,5.68c-2.87-1.68-5.74-2.71-7.85-2.71s-3,.87-3,2V32c0,1.62,2.76,2.38,5.9,3.46,4.06,1.35,8.77,3.3,8.77,8.61v.11c0,6.44-4.82,9.36-11.1,9.36A20.34,20.34,0,0,1,134.8,49.17ZM164,44.78V31h-3.46V24H164V16.58h8.23V24H179v7h-6.82v12.4c0,1.89.81,2.81,2.65,2.81a8.34,8.34,0,0,0,4.06-1v6.6a12.09,12.09,0,0,1-6.49,1.68C167.39,53.5,164,51.5,164,44.78Zm16.73-6.11v-.11c0-8.34,6.71-15.11,15.75-15.11s15.65,6.66,15.65,15v.11c0,8.33-6.72,15.1-15.76,15.1S180.71,47,180.71,38.67Zm23.28,0v-.11a7.72,7.72,0,0,0-7.64-8c-4.71,0-7.52,3.63-7.52,7.91v.11a7.71,7.71,0,0,0,7.63,8C201.17,46.57,204,42.94,204,38.67Z"/><path class="cls-1" d="M212.88,27.77A3.78,3.78,0,0,1,209,23.85a3.85,3.85,0,1,1,3.86,3.92Zm0-7.15a3,3,0,0,0-3,3.23,3,3,0,1,0,6,0A3,3,0,0,0,212.88,20.62Zm-.78,5.47h-.71V21.76H213c1.05,0,1.58.37,1.58,1.25a1.11,1.11,0,0,1-1.13,1.18l1.22,1.9h-.81l-1.12-1.85h-.67Zm.8-2.46c.53,0,1-.05,1-.68s-.51-.58-.94-.58h-.86v1.26Z"/></svg>