<svg id="Layer_1" data-name="Layer 1" xmlns="http://www.w3.org/2000/svg" viewBox="0 0 256.93 140.88"><defs><style>.cls-1{fill:#009448;}.cls-2{fill:#62bb46;}.cls-3{fill:#00643c;}.cls-4{fill:#231f20;}</style></defs><polygon class="cls-1" points="200.54 25.87 205.47 12.26 111.3 0 200.54 25.87"/><polygon class="cls-2" points="200.8 25.16 200.54 25.87 199.71 25.63 190.76 49.98 227.24 32.65 200.8 25.16"/><polygon class="cls-3" points="199.71 25.63 200.54 25.87 200.8 25.16 199.97 24.92 199.71 25.63"/><polygon class="cls-3" points="199.71 25.63 225.99 33.25 256.93 18.96 204.61 12.15 199.71 25.63"/><path class="cls-4" d="M62.19,108.61A21.52,21.52,0,0,1,58,110.52a17,17,0,0,1-5.1.68A11.87,11.87,0,0,1,47.54,110a12,12,0,0,1-4.16-3.37,16.52,16.52,0,0,1-2.76-5.3,22.83,22.83,0,0,1-1-6.95,23.38,23.38,0,0,1,1-7.13A15.55,15.55,0,0,1,43.4,82a11.68,11.68,0,0,1,4.18-3.21,12.67,12.67,0,0,1,5.28-1.1,17.46,17.46,0,0,1,4.59.54,23,23,0,0,1,3.85,1.46l.73.35,2.32-6.4-.6-.28a25.05,25.05,0,0,0-4.94-1.71,25.94,25.94,0,0,0-5.89-.61,20.66,20.66,0,0,0-8.6,1.75,19.15,19.15,0,0,0-6.61,4.92,21.86,21.86,0,0,0-4.17,7.47,29.43,29.43,0,0,0-1.45,9.44,29.86,29.86,0,0,0,1.45,9.6,21,21,0,0,0,4.12,7.32A18,18,0,0,0,44,116.23a20,20,0,0,0,8.16,1.63,26.44,26.44,0,0,0,7.12-.87,27.44,27.44,0,0,0,5.43-2.16l.56-.3-2.34-6.37Z" transform="translate(-32.09 -26.22)"/><path class="cls-4" d="M91.43,82.74a11.06,11.06,0,0,0-1.72-.31q-.94-.09-1.92-.09a11.13,11.13,0,0,0-4,.7,11.39,11.39,0,0,0-5.54,4.51c-.06.09-.11.19-.16.28V83.09H71.16v34h7.1v-16A16.88,16.88,0,0,1,79,95.85a10.78,10.78,0,0,1,1.93-3.61,7.61,7.61,0,0,1,5.8-2.75,6.44,6.44,0,0,1,2.53.45l.76.32.23-.79,1.9-6.54Z" transform="translate(-32.09 -26.22)"/><path class="cls-4" d="M118.59,87A13.06,13.06,0,0,0,114,83.59a15.55,15.55,0,0,0-6.44-1.25,14.27,14.27,0,0,0-11.2,5.11,17.34,17.34,0,0,0-3.14,5.65,21.8,21.8,0,0,0-1.1,7,23.31,23.31,0,0,0,1.1,7.46,15.51,15.51,0,0,0,3.19,5.58,14,14,0,0,0,5,3.51,17.33,17.33,0,0,0,6.61,1.21,30,30,0,0,0,6.48-.64,24.79,24.79,0,0,0,5.22-1.75l.56-.26-1.7-6.24-.79.35a26.83,26.83,0,0,1-4.2,1.5,19.54,19.54,0,0,1-4.89.57,8.82,8.82,0,0,1-6.44-2.36,10.5,10.5,0,0,1-2.85-5.89H122l.06-.66c.13-1.4.19-2.84.19-4.32a19.78,19.78,0,0,0-.91-6A14.6,14.6,0,0,0,118.59,87Zm-3,10.07H99.33A11.1,11.1,0,0,1,101.88,91a7.19,7.19,0,0,1,5.51-2.27,7.82,7.82,0,0,1,6,2.33A9.27,9.27,0,0,1,115.59,97.11Z" transform="translate(-32.09 -26.22)"/><path class="cls-4" d="M157.77,111a1.46,1.46,0,0,1-.57-.77,5.06,5.06,0,0,1-.24-1.71V69.31h-7.1V85.45a21.22,21.22,0,0,0-2.57-1.71,12.17,12.17,0,0,0-6-1.4,13,13,0,0,0-5.89,1.39,15.35,15.35,0,0,0-4.83,3.78,18.05,18.05,0,0,0-3.27,5.67,20.59,20.59,0,0,0-1.2,7.1,21.23,21.23,0,0,0,1.17,7.24,16.82,16.82,0,0,0,3.24,5.53,14.52,14.52,0,0,0,10.85,4.81,11.88,11.88,0,0,0,6.6-1.72,16,16,0,0,0,3.24-2.75,6.33,6.33,0,0,0,2.31,2.72,9.29,9.29,0,0,0,5.19,1.31h.56l1.59-5.85h-1A3.94,3.94,0,0,1,157.77,111Zm-11.05-.59a8.8,8.8,0,0,1-4.08,1,8.18,8.18,0,0,1-3.65-.83,8.93,8.93,0,0,1-3-2.33,10.78,10.78,0,0,1-2-3.55,14.06,14.06,0,0,1-.71-4.58,15.27,15.27,0,0,1,.66-4.58,10.6,10.6,0,0,1,1.87-3.6,9,9,0,0,1,2.93-2.38,8.17,8.17,0,0,1,3.77-.86,8.05,8.05,0,0,1,4.34,1.18,11.59,11.59,0,0,1,2.94,2.44v15.59A10.55,10.55,0,0,1,146.72,110.38Z" transform="translate(-32.09 -26.22)"/><path class="cls-4" d="M190.41,87a13.15,13.15,0,0,0-4.64-3.45,15.58,15.58,0,0,0-6.44-1.25A14.41,14.41,0,0,0,173,83.69a14.57,14.57,0,0,0-4.88,3.76A17,17,0,0,0,165,93.1a21.53,21.53,0,0,0-1.11,7,23.3,23.3,0,0,0,1.11,7.46,15.36,15.36,0,0,0,3.19,5.58,13.88,13.88,0,0,0,5,3.51,17.28,17.28,0,0,0,6.6,1.21,30,30,0,0,0,6.48-.64,24.69,24.69,0,0,0,5.23-1.75l.55-.26-1.7-6.24-.78.35a26.59,26.59,0,0,1-4.21,1.5,19.46,19.46,0,0,1-4.88.57,8.82,8.82,0,0,1-6.44-2.36,10.44,10.44,0,0,1-2.85-5.89h22.6l.06-.66c.13-1.4.2-2.84.2-4.32a19.78,19.78,0,0,0-.92-6A14.58,14.58,0,0,0,190.41,87Zm-3,10.07H171.14A11,11,0,0,1,173.7,91a7.15,7.15,0,0,1,5.5-2.27,7.8,7.8,0,0,1,6,2.33A9.22,9.22,0,0,1,187.4,97.11Z" transform="translate(-32.09 -26.22)"/><path class="cls-4" d="M215.55,110.63a13.26,13.26,0,0,1-1.9.62,8.42,8.42,0,0,1-2.14.26,4.16,4.16,0,0,1-3.36-1.37,6.86,6.86,0,0,1-1.23-4.53V69.31h-7.1v36.86a15,15,0,0,0,.83,5.27,9.9,9.9,0,0,0,2.34,3.65,9.26,9.26,0,0,0,3.5,2.1,13.09,13.09,0,0,0,4.27.67,16.9,16.9,0,0,0,3.82-.4,15.39,15.39,0,0,0,2.93-.92l.59-.26-1.8-6Z" transform="translate(-32.09 -26.22)"/><polygon class="cls-4" points="189.71 90.88 196.81 90.88 196.81 90.15 196.81 56.87 189.71 56.87 189.71 90.88"/><path class="cls-4" d="M267.54,92.69a16.39,16.39,0,0,0-3.61-5.57,15.83,15.83,0,0,0-5.41-3.54,17.63,17.63,0,0,0-6.62-1.24,17.84,17.84,0,0,0-6.69,1.24,15.79,15.79,0,0,0-5.39,3.54,16.69,16.69,0,0,0-3.57,5.6,20,20,0,0,0-1.3,7.38,19.54,19.54,0,0,0,1.27,7.15,17,17,0,0,0,3.53,5.62,15.87,15.87,0,0,0,5.38,3.68,18.14,18.14,0,0,0,13.46,0,15.79,15.79,0,0,0,5.41-3.64,16.34,16.34,0,0,0,3.57-5.66,20.14,20.14,0,0,0,1.27-7.31A19.53,19.53,0,0,0,267.54,92.69Zm-15.64,18.7a8.38,8.38,0,0,1-3.84-.89,10.15,10.15,0,0,1-3.09-2.45,11.56,11.56,0,0,1-2.06-3.66,13.27,13.27,0,0,1-.74-4.42,12.21,12.21,0,0,1,2.58-8.17,8.81,8.81,0,0,1,7.15-3,8.21,8.21,0,0,1,3.83.89,10.13,10.13,0,0,1,3.1,2.42,11.29,11.29,0,0,1,2.05,3.59,13,13,0,0,1,.74,4.39,14.86,14.86,0,0,1-.68,4.65A10.63,10.63,0,0,1,259,108.3a8.57,8.57,0,0,1-3,2.28A9.9,9.9,0,0,1,251.9,111.39Z" transform="translate(-32.09 -26.22)"/><path d="M42.84,152.05a10.43,10.43,0,0,1-1.76-12.61c3.91-6.62,10.56-6.27,16.61-5l1.23-5.06a27.12,27.12,0,0,0-7.55-1.11C44.72,128.29,39,131,35.69,136a15.72,15.72,0,0,0,4,21.5c5.54,4.08,16.19,4.52,20.92.93l-2.48-4.62C51.43,156.18,46.72,155.62,42.84,152.05Z" transform="translate(-32.09 -26.22)"/><polygon points="76.36 133.75 83.72 133.75 83.72 108.04 93.79 108.04 93.79 103.04 65.96 103.04 65.96 108.16 76.36 108.16 76.36 133.75"/><path class="cls-4" d="M164.9,128.12c-3.07,4.59-5.5,9-5.5,18.46,0,6.74,1.6,13.47,5.73,18.83l-1.88,1.69c-1.29-1.42-7.92-10.16-7.92-20.56,0-6.64,2.51-13.56,7.6-20.16Z" transform="translate(-32.09 -26.22)"/><rect class="cls-4" x="135.42" y="100.71" width="3.71" height="32.34"/><path class="cls-4" d="M183.91,142.23c0-1.33-.32-3.25-2.48-3.25-2.75,0-2.75,2.24-2.75,7,0,.69,0,5.13,0,6.69.05,2,.09,4.21,2.47,4.21,2.75,0,2.75-2.42,2.75-8.79,0-1.92,0-4.63,0-5.82m3.38,13.38c-.36,1.46-1.28,4.07-6,4.07-2.25,0-4.44-.73-5.5-2.65-.87-1.56-.91-2.89-.91-8.61a46.19,46.19,0,0,1,.5-8.39c.37-1.37,1.37-4.07,6-4.07,2.79,0,4.67,1,5.63,3,.78,1.6.78,2.28.78,9.16a43.94,43.94,0,0,1-.51,7.51" transform="translate(-32.09 -26.22)"/><path class="cls-4" d="M199.52,139.12h-3.34v14.56c0,1.47.14,2.93,2.11,2.93a4.61,4.61,0,0,0,1.28-.18v3a6.74,6.74,0,0,1-2,.27c-3.2,0-4.21-1.09-4.67-2.15s-.46-1.51-.46-5.73V139.12h-2.74v-2.79h2.83v-6.14h3.67v6.14h3.34Z" transform="translate(-32.09 -26.22)"/><path class="cls-4" d="M205.52,159.27h-3.61V136.33h3.61Zm0-26.93h-3.61v-4.72h3.61Z" transform="translate(-32.09 -26.22)"/><rect class="cls-4" x="177.42" y="100.71" width="3.71" height="32.34"/><path class="cls-4" d="M225.72,146.22a22.51,22.51,0,0,1-3,2.47c-1.65,1.28-2.89,2.24-2.89,4.9,0,1,0,3.39,2.48,3.39a3.24,3.24,0,0,0,2-.69c1.33-1,1.46-2.56,1.46-4.39Zm3.62,8.2c0,3.57.14,4.07,1.1,4.85H226v-2.75a4.94,4.94,0,0,1-4.72,3.16,5.35,5.35,0,0,1-2.74-.68c-2.16-1.29-2.39-3.48-2.39-5.18,0-3.71,1.47-4.9,3.85-6.55a34.52,34.52,0,0,0,5.77-4.35c0-1.88,0-4-2.79-4s-2.75,1.92-2.75,3.3c0,.68,0,1.19.09,1.69h-3.34a17.37,17.37,0,0,1,.32-4.58c1.14-3.34,5-3.34,6-3.34a5.88,5.88,0,0,1,4.63,1.69c1.42,1.47,1.42,2.7,1.42,5.82Z" transform="translate(-32.09 -26.22)"/><path class="cls-4" d="M246.56,159.27h-3.71V144.34c0-3.3,0-5.5-2.7-5.5-3.07,0-3.07,3.12-3.07,5.64v14.79h-3.66v-22.9h3.48v2.11a6.06,6.06,0,0,1,4.9-2.52c4.76,0,4.76,4,4.76,7.19Z" transform="translate(-32.09 -26.22)"/><path class="cls-4" d="M259.71,145.58v-2.84c0-1.24-.09-3.94-2.84-3.94a2.52,2.52,0,0,0-2.66,1.92c-.27.87-.27,1.6-.27,4.86Zm3.43,6.59a11.46,11.46,0,0,1-.41,3.89c-1.33,3.62-4.9,3.62-6,3.62a5.8,5.8,0,0,1-5.87-3.52c-.41-1.1-.59-1.56-.59-10.77,0-4.9.41-9.39,6.32-9.39,1.46,0,5.68,0,6.41,5,.18,1.14.18,1.78.18,7.55h-9.2c0,1.79-.05,4.13,0,4.95s.28,3.25,2.89,3.25,2.88-2.24,2.88-4.58Z" transform="translate(-32.09 -26.22)"/><path class="cls-4" d="M270.56,159.27h-3.75v-22.9h3.52v4.3c.83-1.78,2.25-4.9,6.19-4.67v3.8c-1.65,0-3.66,0-4.95,1.88-.73,1.1-1,2.38-1,6.64Z" transform="translate(-32.09 -26.22)"/><path class="cls-4" d="M276.61,165.41c4.12-5.36,5.73-12.09,5.73-18.83,0-9.48-2.43-13.88-5.5-18.46l2-1.74c5.08,6.6,7.6,13.52,7.6,20.16,0,10.39-6.64,19.14-7.92,20.56Z" transform="translate(-32.09 -26.22)"/><path d="M98.53,158.29c-.22-.49-.42-.93-.64-1.36q-6.33-12.59-12.68-25.17l-.47-.91-.2-.37h0l-.8-1.41H78.29l-.73,1.41h0l-.22.44c0,.07-.07.13-.1.2-2.94,6.31-6,12.7-9,18.88-1.13,2.35-2.26,4.71-3.38,7.06-.2.42-.38.85-.59,1.32-.07.18-.15.36-.23.55l6.32,1.86c.29-.67.59-1.33.88-2l.65-1.46,2.45-4.79H88.54l.2.38,3.81,7.84,6.22-2C98.68,158.63,98.6,158.46,98.53,158.29ZM75.51,148l4.86-11h0l.57-1.37.48,1.07L86.83,148Z" transform="translate(-32.09 -26.22)"/><path class="cls-4" d="M267.21,83.9H266v-.63h3.35v.63H268v3.47h-.81Z" transform="translate(-32.09 -26.22)"/><path class="cls-4" d="M273.55,85.7c0-.53-.06-1.17-.05-1.73h0c-.14.51-.33,1.06-.53,1.58l-.64,1.77h-.63l-.59-1.75c-.17-.52-.33-1.08-.45-1.6h0c0,.54-.05,1.19-.08,1.75l-.1,1.65h-.76l.3-4.1h1.07l.58,1.65c.15.48.29,1,.4,1.42h0a13.53,13.53,0,0,1,.44-1.43l.61-1.64h1.05l.26,4.1h-.79Z" transform="translate(-32.09 -26.22)"/></svg>